PathFileType	4	(X/Y/Z)	/home/nbianco/projects/addbio/data/HamnerRunning2013/Processed/subject19//results/MarkerData/run200.trc
DataRate	CameraRate	NumFrames	NumMarkers	Units	OrigDataRate	OrigDataStartFrame	OrigNumFrames
120.005	120.005	10	42	m	120.005	171	274
Frame#	Time	C7			CLAV			LACR			LASI			LCAL			LFAradius			LFAsuperior			LFAulna			LLEL			LMEL			LMT5			LPSI			LTB1			LTB2			LTB3			LTH1			LTH2			LTH3			LTOE			LUA1			LUA2			LUA3			RACR			RASI			RCAL			RFAradius			RFAsuperior			RFAulna			RLEL			RMEL			RMT5			RPSI			RTB1			RTB2			RTB3			RTH1			RTH2			RTH3			RTOE			RUA1			RUA2			RUA3		
		X1	Y1	Z1	X2	Y2	Z2	X3	Y3	Z3	X4	Y4	Z4	X5	Y5	Z5	X6	Y6	Z6	X7	Y7	Z7	X8	Y8	Z8	X9	Y9	Z9	X10	Y10	Z10	X11	Y11	Z11	X12	Y12	Z12	X13	Y13	Z13	X14	Y14	Z14	X15	Y15	Z15	X16	Y16	Z16	X17	Y17	Z17	X18	Y18	Z18	X19	Y19	Z19	X20	Y20	Z20	X21	Y21	Z21	X22	Y22	Z22	X23	Y23	Z23	X24	Y24	Z24	X25	Y25	Z25	X26	Y26	Z26	X27	Y27	Z27	X28	Y28	Z28	X29	Y29	Z29	X30	Y30	Z30	X31	Y31	Z31	X32	Y32	Z32	X33	Y33	Z33	X34	Y34	Z34	X35	Y35	Z35	X36	Y36	Z36	X37	Y37	Z37	X38	Y38	Z38	X39	Y39	Z39	X40	Y40	Z40	X41	Y41	Z41	X42	Y42	Z42

172	1.59167	1.02204	1.56427	-0.340052	1.12267	1.48043	-0.285857	1.09305	1.52991	-0.503567	1.07579	1.04164	-0.428993	0.609581	0.227542	-0.353148	1.198	1.28951	-0.442471	1.07615	1.25483	-0.58731	1.20374	1.22332	-0.442696	0.99828	1.24706	-0.620252	0.945805	1.24768	-0.563771	0.728647	0.0575284	-0.398698	0.909301	1.0928	-0.377792	0.879563	0.423131	-0.381955	0.795193	0.359523	-0.428037	0.769117	0.263998	-0.359612	0.977252	0.877703	-0.489959	1.02223	0.765877	-0.459967	0.91439	0.665023	-0.447099	0.749938	0.0881738	-0.292787	1.07239	1.45344	-0.558403	1.00396	1.40613	-0.554532	1.06383	1.34908	-0.580867	1.02823	1.52871	-0.147778	1.06129	1.06257	-0.198528	1.11006	0.147136	-0.26274	0.832259	1.05812	-0.0842054	0.820988	1.24825	-0.0925566	0.773279	1.0595	-0.116791	0.793946	1.32815	-0.131475	0.804996	1.32451	-0.194812	1.30285	0.0796949	-0.185714	0.900895	1.09644	-0.279652	1.22895	0.469346	-0.232934	1.18017	0.409644	-0.172388	1.22258	0.289187	-0.233863	1.0395	0.909047	-0.136428	1.14757	0.78747	-0.161713	1.12431	0.68467	-0.17777	1.31921	0.127669	-0.282776	0.970643	1.46893	-0.109602	0.945739	1.38325	-0.123939	0.868047	1.4147	-0.141154
173	1.6	1.02246	1.5671	-0.338691	1.12302	1.4833	-0.284659	1.09368	1.53357	-0.501819	1.07811	1.04525	-0.42916	0.605262	0.238768	-0.353866	1.19624	1.29613	-0.441459	1.07594	1.26023	-0.587265	1.20253	1.22997	-0.441292	0.998398	1.25211	-0.620839	0.945484	1.25276	-0.564721	0.715412	0.0622082	-0.398519	0.911389	1.09622	-0.378046	0.875772	0.428229	-0.381907	0.790724	0.365489	-0.428501	0.763514	0.27	-0.36011	0.978352	0.882275	-0.491167	1.02146	0.769782	-0.46079	0.912935	0.67009	-0.446351	0.738385	0.0922966	-0.293282	1.07329	1.45808	-0.557411	1.00482	1.41117	-0.554074	1.06431	1.35405	-0.580812	1.02888	1.5315	-0.146847	1.06306	1.06642	-0.197347	1.12716	0.144787	-0.262753	0.832543	1.06211	-0.0838936	0.820883	1.25247	-0.0926824	0.773822	1.06326	-0.116825	0.793936	1.33246	-0.132039	0.80584	1.32851	-0.195079	1.32354	0.0824125	-0.190443	0.903075	1.09994	-0.279925	1.23043	0.471241	-0.232644	1.18503	0.409208	-0.171783	1.23301	0.291136	-0.234104	1.03927	0.91119	-0.13729	1.14553	0.78759	-0.160423	1.12143	0.684936	-0.176544	1.33649	0.133635	-0.286354	0.970959	1.47298	-0.108305	0.945735	1.38699	-0.122975	0.868503	1.41902	-0.141358
174	1.60833	1.02274	1.5692	-0.337216	1.12335	1.48542	-0.283458	1.09388	1.53646	-0.500189	1.08028	1.04824	-0.429162	0.601393	0.249619	-0.35445	1.19425	1.30129	-0.440643	1.07536	1.26469	-0.587329	1.2011	1.23515	-0.440325	0.998094	1.25639	-0.621422	0.944875	1.25696	-0.565785	0.70257	0.0671592	-0.398178	0.913448	1.09899	-0.378159	0.873176	0.432458	-0.381405	0.787485	0.370831	-0.428781	0.758491	0.275592	-0.360423	0.979601	0.88646	-0.492377	1.0212	0.773101	-0.461814	0.912706	0.674177	-0.445581	0.727208	0.0966914	-0.293617	1.07371	1.46187	-0.556445	1.00524	1.41532	-0.553605	1.06442	1.35817	-0.580843	1.02951	1.5334	-0.145758	1.06485	1.06877	-0.196623	1.14145	0.143294	-0.263461	0.833252	1.06503	-0.0832902	0.821045	1.25558	-0.0925315	0.774859	1.06588	-0.116683	0.794075	1.33563	-0.132193	0.806673	1.33144	-0.195001	1.34034	0.0857744	-0.193702	0.905133	1.10257	-0.27997	1.23164	0.472723	-0.232246	1.1885	0.40888	-0.171414	1.24153	0.293092	-0.234323	1.03879	0.912301	-0.138212	1.14386	0.786984	-0.159417	1.11894	0.684483	-0.175598	1.35089	0.139147	-0.288493	0.971298	1.47607	-0.106834	0.945818	1.38974	-0.121977	0.868955	1.42219	-0.141272
175	1.61667	1.02294	1.57057	-0.33564	1.12367	1.4868	-0.282263	1.09366	1.53862	-0.498719	1.08227	1.05055	-0.428919	0.597999	0.260046	-0.354931	1.1921	1.30496	-0.440035	1.07444	1.26816	-0.587544	1.19946	1.23882	-0.439816	0.997356	1.2599	-0.621971	0.943923	1.26032	-0.566822	0.690074	0.0722366	-0.397709	0.915394	1.1011	-0.378134	0.871812	0.43554	-0.380705	0.785345	0.375422	-0.428886	0.754064	0.280629	-0.360616	0.981049	0.889794	-0.49309	1.02159	0.775674	-0.462822	0.913932	0.676986	-0.444989	0.716357	0.101195	-0.293825	1.07358	1.46479	-0.555486	1.00519	1.41853	-0.553101	1.06414	1.3614	-0.580957	1.03015	1.53442	-0.14446	1.0666	1.06952	-0.196705	1.15269	0.142584	-0.264855	0.834396	1.06687	-0.0823798	0.82142	1.25754	-0.0920747	0.776345	1.06735	-0.116328	0.794356	1.33756	-0.131906	0.807443	1.33328	-0.194548	1.35283	0.0889248	-0.195391	0.90695	1.10428	-0.279811	1.23267	0.473857	-0.231992	1.19088	0.40867	-0.17139	1.24816	0.294851	-0.234667	1.03822	0.912483	-0.138925	1.14271	0.785863	-0.158892	1.117	0.683497	-0.175155	1.36237	0.143254	-0.28901	0.971699	1.47803	-0.105216	0.946031	1.39141	-0.120917	0.869415	1.42416	-0.140825
176	1.625	1.02307	1.57122	-0.333983	1.12397	1.48749	-0.281092	1.09308	1.54005	-0.497404	1.08405	1.05216	-0.428418	0.595091	0.270079	-0.355396	1.18984	1.3071	-0.4396	1.07318	1.27061	-0.587925	1.19765	1.24094	-0.439756	0.996167	1.26266	-0.622477	0.942551	1.26296	-0.567656	0.677869	0.0774283	-0.397172	0.917098	1.10252	-0.377983	0.871726	0.43725	-0.380073	0.784151	0.379176	-0.428843	0.750217	0.285028	-0.360757	0.982822	0.891913	-0.493052	1.02284	0.777347	-0.463478	0.91673	0.678275	-0.444667	0.705823	0.105764	-0.294026	1.07289	1.46684	-0.55454	1.00462	1.42081	-0.552525	1.06346	1.36376	-0.581126	1.03079	1.53456	-0.142964	1.06818	1.069	-0.197322	1.16077	0.142515	-0.266907	0.835996	1.06763	-0.0811899	0.82201	1.25831	-0.0912801	0.778232	1.06767	-0.115727	0.794796	1.33821	-0.131156	0.808132	1.33402	-0.193688	1.36085	0.0910764	-0.195716	0.908435	1.10505	-0.279517	1.23353	0.474648	-0.232088	1.1925	0.408474	-0.171821	1.25294	0.296135	-0.235281	1.03771	0.911829	-0.139268	1.14231	0.784448	-0.158903	1.11582	0.682184	-0.175294	1.37089	0.145222	-0.288221	0.972211	1.47876	-0.103491	0.946439	1.39196	-0.119751	0.869939	1.4249	-0.139965
177	1.63333	1.02317	1.57118	-0.332256	1.12425	1.4875	-0.279969	1.09222	1.5408	-0.496193	1.08563	1.05309	-0.427723	0.592643	0.279793	-0.35597	1.18754	1.30772	-0.439292	1.07159	1.27205	-0.588452	1.19564	1.24152	-0.440136	0.994508	1.26476	-0.622923	0.940739	1.265	-0.568201	0.665955	0.0828358	-0.396637	0.918465	1.1032	-0.377756	0.872905	0.437516	-0.379668	0.783818	0.382076	-0.428709	0.746914	0.288816	-0.36092	0.9851	0.892635	-0.492378	1.0252	0.777989	-0.46345	0.921029	0.677939	-0.444568	0.695698	0.110514	-0.294319	1.07168	1.46806	-0.553628	1.00355	1.42222	-0.55184	1.06235	1.36529	-0.581293	1.03145	1.53388	-0.141351	1.06952	1.06779	-0.197888	1.16562	0.142793	-0.26957	0.838065	1.06729	-0.0798154	0.822868	1.2579	-0.090127	0.780478	1.06689	-0.114855	0.795422	1.33761	-0.129941	0.808766	1.33362	-0.192403	1.36453	0.0917009	-0.195171	0.909561	1.10486	-0.2792	1.23425	0.474968	-0.232622	1.19353	0.408076	-0.172762	1.25593	0.296641	-0.236255	1.03741	0.910438	-0.139247	1.14284	0.78289	-0.159397	1.11553	0.680711	-0.175934	1.3763	0.144857	-0.286868	0.97287	1.47821	-0.101687	0.947089	1.39139	-0.118464	0.870577	1.42442	-0.138666
178	1.64167	1.02322	1.57052	-0.330451	1.12448	1.48685	-0.278912	1.09119	1.54086	-0.495016	1.08703	1.05334	-0.426945	0.590597	0.289254	-0.356783	1.18525	1.30683	-0.43909	1.06965	1.27254	-0.589067	1.19343	1.24059	-0.440923	0.99237	1.26624	-0.623283	0.938537	1.26648	-0.568502	0.654502	0.0886024	-0.396157	0.919496	1.10301	-0.377566	0.875227	0.436469	-0.379479	0.78434	0.384189	-0.428558	0.744135	0.292128	-0.361174	0.988053	0.891902	-0.491357	1.02885	0.777538	-0.462532	0.926586	0.676053	-0.44454	0.686187	0.115664	-0.294725	1.07007	1.46851	-0.55276	1.00202	1.42284	-0.551007	1.06078	1.36609	-0.581395	1.03208	1.53239	-0.139727	1.07055	1.06629	-0.197987	1.1672	0.142992	-0.272707	0.840597	1.06582	-0.0783913	0.824067	1.25633	-0.0886241	0.783065	1.06502	-0.113684	0.796264	1.33585	-0.128266	0.809412	1.33206	-0.190713	1.36421	0.0905131	-0.194504	0.910363	1.10371	-0.279001	1.23483	0.474576	-0.233555	1.19401	0.407215	-0.174165	1.25713	0.296105	-0.237601	1.0374	0.908437	-0.138979	1.14425	0.781225	-0.160286	1.11611	0.679177	-0.176904	1.37843	0.142521	-0.285845	0.973683	1.47646	-0.0998034	0.947994	1.38973	-0.117084	0.871355	1.42274	-0.136924
179	1.65	1.02318	1.56928	-0.328561	1.12466	1.48551	-0.277936	1.0901	1.54021	-0.4938	1.08829	1.05292	-0.426194	0.58888	0.298488	-0.357941	1.18303	1.30445	-0.439022	1.06732	1.27215	-0.589699	1.19096	1.23817	-0.442016	0.989755	1.26715	-0.623525	0.936021	1.26741	-0.568645	0.643915	0.0948262	-0.395773	0.920303	1.10184	-0.377564	0.878476	0.434419	-0.379369	0.785735	0.38566	-0.428458	0.741891	0.29517	-0.361551	0.991766	0.889731	-0.490203	1.03382	0.776036	-0.460716	0.933094	0.672846	-0.444409	0.67757	0.121422	-0.295187	1.0682	1.46828	-0.551912	1.00012	1.42276	-0.549968	1.05878	1.36624	-0.581406	1.0327	1.53016	-0.138159	1.0713	1.06461	-0.197617	1.16556	0.142715	-0.275978	0.843589	1.06323	-0.0770167	0.825665	1.25362	-0.086812	0.785994	1.0621	-0.112195	0.79735	1.33303	-0.126147	0.810145	1.3294	-0.188658	1.36046	0.0873402	-0.194571	0.910923	1.10164	-0.279046	1.23527	0.473207	-0.234795	1.1939	0.405694	-0.175884	1.25651	0.294373	-0.239256	1.03763	0.905976	-0.138592	1.14631	0.779407	-0.161474	1.11736	0.677594	-0.178027	1.37714	0.138782	-0.285886	0.974638	1.47366	-0.0978228	0.949133	1.38706	-0.115644	0.872267	1.41991	-0.13475
180	1.65833	1.023	1.56747	-0.32661	1.12477	1.48347	-0.277043	1.08902	1.5388	-0.4925	1.08941	1.05182	-0.425542	0.587457	0.307469	-0.359498	1.18091	1.30062	-0.439149	1.06457	1.27095	-0.590291	1.18818	1.23433	-0.443263	0.986677	1.26749	-0.623639	0.933222	1.2678	-0.56864	0.634751	0.1015	-0.395523	0.921041	1.0996	-0.377857	0.882432	0.431729	-0.379185	0.787986	0.386686	-0.428456	0.740241	0.298142	-0.362031	0.996187	0.886267	-0.488996	1.03989	0.773625	-0.458195	0.940316	0.668618	-0.444082	0.670114	0.127863	-0.295615	1.06623	1.4674	-0.551031	0.997983	1.42207	-0.548664	1.05639	1.36579	-0.581332	1.03329	1.52721	-0.13665	1.07185	1.06262	-0.197042	1.16092	0.141781	-0.27884	0.847053	1.05954	-0.0756944	0.827694	1.24981	-0.084746	0.789289	1.05812	-0.110388	0.798697	1.3292	-0.123605	0.811019	1.32573	-0.186284	1.35391	0.0820842	-0.196021	0.911332	1.09867	-0.279373	1.23553	0.470694	-0.236271	1.19321	0.403445	-0.177721	1.25419	0.291432	-0.241095	1.03805	0.903195	-0.138199	1.14873	0.777417	-0.16278	1.11902	0.675896	-0.179187	1.37253	0.133929	-0.287385	0.975709	1.46998	-0.0957459	0.950469	1.38346	-0.114151	0.8733	1.41603	-0.13218
181	1.66667	1.02269	1.56501	-0.324679	1.12483	1.48071	-0.27622	1.08801	1.53663	-0.491125	1.09041	1.05003	-0.425012	0.58637	0.316143	-0.361448	1.17883	1.29538	-0.439542	1.06137	1.269	-0.590812	1.18506	1.22913	-0.44457	0.983163	1.26726	-0.623627	0.930133	1.26766	-0.568421	0.627501	0.108507	-0.395448	0.921797	1.09631	-0.378421	0.886973	0.428686	-0.378861	0.791031	0.387461	-0.428571	0.739275	0.301164	-0.362561	1.00113	0.881835	-0.487803	1.04672	0.770495	-0.455312	0.948152	0.663639	-0.443596	0.663987	0.134887	-0.295953	1.06428	1.46589	-0.550058	0.995735	1.42085	-0.547074	1.05367	1.36474	-0.581173	1.03387	1.52357	-0.135157	1.07227	1.06019	-0.196506	1.1538	0.1403	-0.28071	0.851019	1.05483	-0.0743495	0.830163	1.24493	-0.0824721	0.792973	1.05313	-0.108293	0.800301	1.32438	-0.120681	0.812053	1.32114	-0.183626	1.34522	0.074888	-0.198934	0.911669	1.09481	-0.279878	1.23549	0.467031	-0.237945	1.19199	0.400517	-0.179466	1.25041	0.287391	-0.242961	1.03869	0.900176	-0.137939	1.15132	0.775319	-0.163889	1.12087	0.673964	-0.180331	1.36495	0.127737	-0.290384	0.976874	1.46551	-0.0936101	0.951957	1.37901	-0.112581	0.874449	1.41121	-0.129277
